; NON-PLATED HOLES START AT T1
; THROUGH (PLATED) HOLES START AT T100
M48
INCH
T1C0.125984
T2C0.086614
T100C0.028444
T101C0.038972
T102C0.038000
T103C0.035000
T104C0.039000
T105C0.052000
T106C0.031497
%
T1
X022520Y024602
X002020Y022602
X002020Y011603
X022020Y005603
T2
X020020Y001103
X001019Y001103
X020020Y029103
T100
X014020Y028602
X017020Y028602
T101
X029019Y013602
X016520Y014103
X018520Y016602
X019520Y016602
X029019Y014602
X017519Y014103
T102
X012020Y023602
X014020Y023602
X003020Y023602
X005020Y013103
X005020Y023602
X009020Y006603
X006020Y013103
X018520Y006603
X006020Y017603
X006020Y006603
X017520Y006603
X003020Y006603
X007020Y023602
X007020Y006603
X020520Y006603
X004020Y006603
X016520Y006603
X004020Y023602
X012520Y006603
X011520Y006603
X006020Y023602
X005020Y006603
X015020Y023602
X005020Y017603
X017020Y023602
X008020Y023602
X004020Y017603
X013520Y006603
X010020Y023602
X008020Y006603
X019520Y006603
X010020Y006603
X007020Y013103
X013020Y023602
X011020Y023602
X015520Y006603
X004020Y013103
X016020Y023602
X007020Y017603
X014520Y006603
T103
X011020Y027602
X011020Y002603
X007020Y002603
X007020Y027602
T104
X029019Y015602
X016519Y016602
X029019Y016602
X018520Y014103
X017520Y016602
X019520Y014103
T105
X005020Y027602
X002020Y027602
X005020Y002603
X002020Y002603
T106
X014975Y002603
X013991Y002603
T00
M30
