G04 MADE WITH FRITZING*
G04 WWW.FRITZING.ORG*
G04 DOUBLE SIDED*
G04 HOLES PLATED*
G04 CONTOUR ON CENTER OF CONTOUR VECTOR*
%ASAXBY*%
%FSLAX23Y23*%
%MOIN*%
%OFA0B0*%
%SFA1.0B1.0*%
%ADD10C,0.078000*%
%ADD11C,0.060444*%
%ADD12C,0.062992*%
%ADD13C,0.092000*%
%ADD14C,0.075000*%
%ADD15C,0.071000*%
%ADD16C,0.070972*%
%ADD17R,0.062992X0.062992*%
%ADD18R,0.092000X0.092000*%
%ADD19C,0.024000*%
%LNCOPPER0*%
G90*
G70*
G54D10*
X2052Y660D03*
X1952Y660D03*
X1852Y660D03*
X1752Y660D03*
X1652Y660D03*
X1552Y660D03*
X1452Y660D03*
X1352Y660D03*
X1252Y660D03*
X1152Y660D03*
X1002Y660D03*
X902Y660D03*
X802Y660D03*
X702Y660D03*
X602Y660D03*
X502Y660D03*
X402Y660D03*
X302Y660D03*
X1702Y2360D03*
X1602Y2360D03*
X1502Y2360D03*
X1402Y2360D03*
X1302Y2360D03*
X1202Y2360D03*
X1102Y2360D03*
X1002Y2360D03*
X802Y2360D03*
X702Y2360D03*
X602Y2360D03*
X502Y2360D03*
X402Y2360D03*
X302Y2360D03*
G54D11*
X1402Y2860D03*
X1702Y2860D03*
G54D12*
X1399Y260D03*
X1498Y260D03*
G54D13*
X202Y260D03*
X502Y260D03*
X202Y2760D03*
X502Y2760D03*
G54D14*
X702Y260D03*
X1102Y260D03*
X702Y2760D03*
X1102Y2760D03*
G54D15*
X1952Y1410D03*
X1852Y1410D03*
G54D16*
X1752Y1410D03*
X1652Y1410D03*
G54D15*
X1952Y1410D03*
X1852Y1410D03*
G54D16*
X1752Y1410D03*
X1652Y1410D03*
G54D15*
X2902Y1660D03*
X2902Y1560D03*
G54D16*
X2902Y1460D03*
X2902Y1360D03*
G54D15*
X2902Y1660D03*
X2902Y1560D03*
G54D16*
X2902Y1460D03*
X2902Y1360D03*
G54D15*
X1652Y1660D03*
X1752Y1660D03*
G54D16*
X1852Y1660D03*
X1952Y1660D03*
G54D15*
X1652Y1660D03*
X1752Y1660D03*
G54D16*
X1852Y1660D03*
X1952Y1660D03*
G54D10*
X702Y1310D03*
X602Y1310D03*
X502Y1310D03*
X402Y1310D03*
X702Y1310D03*
X602Y1310D03*
X502Y1310D03*
X402Y1310D03*
X402Y1760D03*
X502Y1760D03*
X602Y1760D03*
X702Y1760D03*
X402Y1760D03*
X502Y1760D03*
X602Y1760D03*
X702Y1760D03*
G54D17*
X1399Y260D03*
G54D18*
X202Y260D03*
X202Y2760D03*
G54D19*
X603Y810D02*
X502Y1161D01*
D02*
X502Y1161D02*
X502Y1280D01*
D02*
X602Y690D02*
X603Y810D01*
D02*
X603Y1161D02*
X602Y1280D01*
D02*
X801Y810D02*
X603Y1161D01*
D02*
X802Y690D02*
X801Y810D01*
D02*
X1752Y810D02*
X1752Y690D01*
D02*
X902Y810D02*
X1752Y810D01*
D02*
X703Y1161D02*
X902Y810D01*
D02*
X702Y1280D02*
X703Y1161D01*
D02*
X1653Y1260D02*
X1652Y1380D01*
D02*
X1750Y1260D02*
X1653Y1260D01*
D02*
X1752Y810D02*
X1750Y1260D01*
D02*
X2153Y1260D02*
X2153Y1360D01*
D02*
X2153Y1360D02*
X2871Y1360D01*
D02*
X1750Y1260D02*
X2153Y1260D01*
D02*
X501Y810D02*
X402Y1161D01*
D02*
X402Y1161D02*
X252Y1311D01*
D02*
X252Y1311D02*
X252Y1560D01*
D02*
X603Y1560D02*
X602Y1730D01*
D02*
X252Y1560D02*
X603Y1560D01*
D02*
X502Y690D02*
X501Y810D01*
D02*
X703Y409D02*
X103Y409D01*
D02*
X103Y409D02*
X103Y1661D01*
D02*
X501Y1661D02*
X502Y1730D01*
D02*
X103Y1661D02*
X501Y1661D01*
D02*
X702Y630D02*
X703Y409D01*
D02*
X1102Y2209D02*
X402Y2209D01*
D02*
X402Y2209D02*
X402Y1790D01*
D02*
X1102Y2330D02*
X1102Y2209D01*
D02*
X701Y2112D02*
X702Y1790D01*
D02*
X1301Y2109D02*
X701Y2112D01*
D02*
X1302Y2330D02*
X1301Y2109D01*
D02*
X1301Y1462D02*
X402Y1462D01*
D02*
X402Y1462D02*
X402Y1340D01*
D02*
X1301Y2109D02*
X1301Y1462D01*
D02*
X1651Y2112D02*
X1652Y1691D01*
D02*
X1301Y2109D02*
X1651Y2112D01*
D02*
X2203Y1559D02*
X2871Y1560D01*
D02*
X2203Y1912D02*
X2203Y1559D01*
D02*
X2101Y1912D02*
X2203Y1912D01*
D02*
X2101Y2811D02*
X2101Y1912D01*
D02*
X1853Y2811D02*
X2101Y2811D01*
D02*
X1853Y2961D02*
X1853Y2811D01*
D02*
X301Y2961D02*
X1853Y2961D01*
D02*
X302Y2390D02*
X301Y2961D01*
D02*
X2152Y1460D02*
X2152Y1861D01*
D02*
X2152Y1861D02*
X2053Y1861D01*
D02*
X2053Y1861D02*
X2053Y2761D01*
D02*
X2053Y2761D02*
X1303Y2761D01*
D02*
X1303Y2761D02*
X1303Y2910D01*
D02*
X1303Y2910D02*
X403Y2910D01*
D02*
X403Y2910D02*
X402Y2390D01*
D02*
X2871Y1460D02*
X2152Y1460D01*
D02*
X1751Y1559D02*
X2053Y1559D01*
D02*
X2053Y1559D02*
X2053Y1759D01*
D02*
X2053Y1759D02*
X1951Y1759D01*
D02*
X1951Y1759D02*
X1951Y2659D01*
D02*
X1951Y2659D02*
X603Y2659D01*
D02*
X603Y2659D02*
X602Y2390D01*
D02*
X1752Y1441D02*
X1751Y1559D01*
D02*
X1853Y1511D02*
X2101Y1511D01*
D02*
X2101Y1511D02*
X2101Y1810D01*
D02*
X2101Y1810D02*
X2002Y1810D01*
D02*
X2002Y1810D02*
X2002Y2710D01*
D02*
X2002Y2710D02*
X1201Y2710D01*
D02*
X1201Y2710D02*
X1201Y2859D01*
D02*
X1201Y2859D02*
X702Y2859D01*
D02*
X702Y2859D02*
X502Y2659D01*
D02*
X502Y2659D02*
X502Y2390D01*
D02*
X1852Y1441D02*
X1853Y1511D01*
D02*
X1901Y1759D02*
X1901Y2611D01*
D02*
X1901Y2611D02*
X702Y2611D01*
D02*
X702Y2611D02*
X702Y2390D01*
D02*
X1866Y1688D02*
X1901Y1759D01*
D02*
X1853Y1759D02*
X1853Y2560D01*
D02*
X1853Y2560D02*
X801Y2560D01*
D02*
X801Y2560D02*
X802Y2390D01*
D02*
X1774Y1682D02*
X1853Y1759D01*
G04 End of Copper0*
M02*