G04 MADE WITH FRITZING*
G04 WWW.FRITZING.ORG*
G04 DOUBLE SIDED*
G04 HOLES PLATED*
G04 CONTOUR ON CENTER OF CONTOUR VECTOR*
%ASAXBY*%
%FSLAX23Y23*%
%MOIN*%
%OFA0B0*%
%SFA1.0B1.0*%
%ADD10C,0.078000*%
%ADD11C,0.060444*%
%ADD12C,0.062992*%
%ADD13C,0.092000*%
%ADD14C,0.075000*%
%ADD15C,0.071000*%
%ADD16C,0.070972*%
%ADD17R,0.062992X0.062992*%
%ADD18R,0.092000X0.092000*%
%ADD19C,0.024000*%
%LNCOPPER1*%
G90*
G70*
G54D10*
X2052Y660D03*
X1952Y660D03*
X1852Y660D03*
X1752Y660D03*
X1652Y660D03*
X1552Y660D03*
X1452Y660D03*
X1352Y660D03*
X1252Y660D03*
X1152Y660D03*
X1002Y660D03*
X902Y660D03*
X802Y660D03*
X702Y660D03*
X602Y660D03*
X502Y660D03*
X402Y660D03*
X302Y660D03*
X1702Y2360D03*
X1602Y2360D03*
X1502Y2360D03*
X1402Y2360D03*
X1302Y2360D03*
X1202Y2360D03*
X1102Y2360D03*
X1002Y2360D03*
X802Y2360D03*
X702Y2360D03*
X602Y2360D03*
X502Y2360D03*
X402Y2360D03*
X302Y2360D03*
G54D11*
X1402Y2860D03*
X1702Y2860D03*
G54D12*
X1399Y260D03*
X1498Y260D03*
G54D13*
X202Y260D03*
X502Y260D03*
X202Y2760D03*
X502Y2760D03*
G54D14*
X702Y260D03*
X1102Y260D03*
X702Y2760D03*
X1102Y2760D03*
G54D15*
X1952Y1410D03*
X1852Y1410D03*
G54D16*
X1752Y1410D03*
X1652Y1410D03*
G54D15*
X1952Y1410D03*
X1852Y1410D03*
G54D16*
X1752Y1410D03*
X1652Y1410D03*
G54D15*
X2902Y1660D03*
X2902Y1560D03*
G54D16*
X2902Y1460D03*
X2902Y1360D03*
G54D15*
X2902Y1660D03*
X2902Y1560D03*
G54D16*
X2902Y1460D03*
X2902Y1360D03*
G54D15*
X1652Y1660D03*
X1752Y1660D03*
G54D16*
X1852Y1660D03*
X1952Y1660D03*
G54D15*
X1652Y1660D03*
X1752Y1660D03*
G54D16*
X1852Y1660D03*
X1952Y1660D03*
G54D10*
X702Y1310D03*
X602Y1310D03*
X502Y1310D03*
X402Y1310D03*
X702Y1310D03*
X602Y1310D03*
X502Y1310D03*
X402Y1310D03*
X402Y1760D03*
X502Y1760D03*
X602Y1760D03*
X702Y1760D03*
X402Y1760D03*
X502Y1760D03*
X602Y1760D03*
X702Y1760D03*
G54D17*
X1399Y260D03*
G54D18*
X202Y260D03*
X202Y2760D03*
G54D19*
X1204Y2859D02*
X1377Y2860D01*
D02*
X1202Y2390D02*
X1204Y2859D01*
D02*
X904Y2111D02*
X102Y2111D01*
D02*
X102Y2111D02*
X102Y2859D01*
D02*
X102Y2859D02*
X501Y2859D01*
D02*
X501Y2859D02*
X502Y2797D01*
D02*
X902Y690D02*
X904Y2111D01*
D02*
X1202Y2211D02*
X1052Y409D01*
D02*
X1052Y409D02*
X201Y409D01*
D02*
X201Y409D02*
X202Y297D01*
D02*
X1301Y2210D02*
X1202Y2211D01*
D02*
X201Y2560D02*
X202Y2723D01*
D02*
X903Y2560D02*
X201Y2560D01*
D02*
X903Y2211D02*
X903Y2560D01*
D02*
X1301Y2210D02*
X903Y2211D01*
D02*
X1302Y2330D02*
X1301Y2210D01*
D02*
X501Y360D02*
X502Y297D01*
D02*
X1153Y362D02*
X501Y360D01*
D02*
X1153Y459D02*
X1153Y362D01*
D02*
X1451Y459D02*
X1153Y459D01*
D02*
X1452Y630D02*
X1451Y459D01*
D02*
X1701Y159D02*
X1101Y159D01*
D02*
X1101Y159D02*
X1102Y232D01*
D02*
X1701Y261D02*
X1701Y159D01*
D02*
X1701Y459D02*
X1745Y631D01*
D02*
X1701Y261D02*
X1701Y459D01*
D02*
X1524Y260D02*
X1701Y261D01*
D02*
X1652Y1211D02*
X1504Y1211D01*
D02*
X1504Y1211D02*
X1504Y2111D01*
D02*
X1504Y2111D02*
X1800Y2111D01*
D02*
X1800Y2111D02*
X1800Y2859D01*
D02*
X1800Y2859D02*
X1727Y2860D01*
D02*
X1652Y690D02*
X1652Y1211D01*
D02*
X1952Y1560D02*
X1952Y1630D01*
D02*
X1553Y1560D02*
X1952Y1560D01*
D02*
X1553Y1260D02*
X1553Y1560D01*
D02*
X1751Y1260D02*
X1553Y1260D01*
D02*
X1752Y690D02*
X1751Y1260D01*
D02*
X1401Y409D02*
X1400Y287D01*
D02*
X1553Y409D02*
X1401Y409D01*
D02*
X1552Y630D02*
X1553Y409D01*
D02*
X1102Y2390D02*
X1102Y2732D01*
D02*
X2053Y1509D02*
X1953Y1509D01*
D02*
X1953Y1509D02*
X1952Y1441D01*
D02*
X2052Y1661D02*
X2053Y1509D01*
D02*
X2052Y1661D02*
X2871Y1660D01*
D02*
X2053Y2809D02*
X2052Y1661D01*
D02*
X1904Y2809D02*
X2053Y2809D01*
D02*
X1904Y2959D02*
X1904Y2809D01*
D02*
X903Y2959D02*
X1904Y2959D01*
D02*
X903Y2560D02*
X903Y2959D01*
D02*
X673Y2760D02*
X539Y2760D01*
D02*
X673Y260D02*
X539Y260D01*
G04 End of Copper1*
M02*