G04 MADE WITH FRITZING*
G04 WWW.FRITZING.ORG*
G04 DOUBLE SIDED*
G04 HOLES PLATED*
G04 CONTOUR ON CENTER OF CONTOUR VECTOR*
%ASAXBY*%
%FSLAX23Y23*%
%MOIN*%
%OFA0B0*%
%SFA1.0B1.0*%
%ADD10C,0.096614*%
%ADD11C,0.088000*%
%ADD12C,0.070444*%
%ADD13C,0.072992*%
%ADD14C,0.102000*%
%ADD15C,0.085000*%
%ADD16C,0.135984*%
%ADD17C,0.081000*%
%ADD18C,0.080972*%
%ADD19R,0.072992X0.072992*%
%ADD20R,0.102000X0.102000*%
%LNMASK0*%
G90*
G70*
G54D10*
X2002Y110D03*
X2002Y2910D03*
X102Y110D03*
G54D11*
X2052Y660D03*
X1952Y660D03*
X1852Y660D03*
X1752Y660D03*
X1652Y660D03*
X1552Y660D03*
X1452Y660D03*
X1352Y660D03*
X1252Y660D03*
X1152Y660D03*
X1002Y660D03*
X902Y660D03*
X802Y660D03*
X702Y660D03*
X602Y660D03*
X502Y660D03*
X402Y660D03*
X302Y660D03*
X1702Y2360D03*
X1602Y2360D03*
X1502Y2360D03*
X1402Y2360D03*
X1302Y2360D03*
X1202Y2360D03*
X1102Y2360D03*
X1002Y2360D03*
X802Y2360D03*
X702Y2360D03*
X602Y2360D03*
X502Y2360D03*
X402Y2360D03*
X302Y2360D03*
G54D12*
X1402Y2860D03*
X1702Y2860D03*
G54D13*
X1399Y260D03*
X1498Y260D03*
G54D14*
X202Y260D03*
X502Y260D03*
X202Y2760D03*
X502Y2760D03*
G54D15*
X702Y260D03*
X1102Y260D03*
X702Y2760D03*
X1102Y2760D03*
G54D16*
X202Y2260D03*
X202Y1160D03*
X2252Y2460D03*
X2202Y560D03*
G54D17*
X1952Y1410D03*
X1852Y1410D03*
G54D18*
X1752Y1410D03*
X1652Y1410D03*
G54D17*
X1952Y1410D03*
X1852Y1410D03*
G54D18*
X1752Y1410D03*
X1652Y1410D03*
G54D17*
X2902Y1660D03*
X2902Y1560D03*
G54D18*
X2902Y1460D03*
X2902Y1360D03*
G54D17*
X2902Y1660D03*
X2902Y1560D03*
G54D18*
X2902Y1460D03*
X2902Y1360D03*
G54D17*
X1652Y1660D03*
X1752Y1660D03*
G54D18*
X1852Y1660D03*
X1952Y1660D03*
G54D17*
X1652Y1660D03*
X1752Y1660D03*
G54D18*
X1852Y1660D03*
X1952Y1660D03*
G54D11*
X702Y1310D03*
X602Y1310D03*
X502Y1310D03*
X402Y1310D03*
X702Y1310D03*
X602Y1310D03*
X502Y1310D03*
X402Y1310D03*
X402Y1760D03*
X502Y1760D03*
X602Y1760D03*
X702Y1760D03*
X402Y1760D03*
X502Y1760D03*
X602Y1760D03*
X702Y1760D03*
G54D19*
X1399Y260D03*
G54D20*
X202Y260D03*
X202Y2760D03*
G04 End of Mask0*
M02*